<svg xmlns="http://www.w3.org/2000/svg" viewBox="0 0 512 512">
  <defs>
    <linearGradient id="bg512" x1="0%" y1="0%" x2="100%" y2="100%">
      <stop offset="0%" style="stop-color:#0f172a"/>
      <stop offset="50%" style="stop-color:#1e293b"/>
      <stop offset="100%" style="stop-color:#1e3a5f"/>
    </linearGradient>
    <linearGradient id="trophy512" x1="0%" y1="0%" x2="0%" y2="100%">
      <stop offset="0%" style="stop-color:#fde68a"/>
      <stop offset="50%" style="stop-color:#fbbf24"/>
      <stop offset="100%" style="stop-color:#f59e0b"/>
    </linearGradient>
    <linearGradient id="handle512" x1="0%" y1="0%" x2="0%" y2="100%">
      <stop offset="0%" style="stop-color:#fbbf24"/>
      <stop offset="100%" style="stop-color:#d97706"/>
    </linearGradient>
    <filter id="shadow512" x="-20%" y="-20%" width="140%" height="140%">
      <feDropShadow dx="0" dy="4" stdDeviation="8" flood-color="#000" flood-opacity="0.3"/>
    </filter>
  </defs>
  
  <!-- Background -->
  <rect width="512" height="512" rx="102" fill="url(#bg512)"/>
  
  <!-- Subtle pattern -->
  <circle cx="128" cy="128" r="200" fill="white" opacity="0.02"/>
  <circle cx="384" cy="384" r="200" fill="white" opacity="0.02"/>
  
  <g filter="url(#shadow512)">
    <!-- Trophy Cup -->
    <path d="M128 100h256v112c0 70.7-57.3 128-128 128s-128-57.3-128-128V100z" fill="url(#trophy512)"/>
    
    <!-- Left Handle -->
    <path d="M96 100h40v64c0 22-18 40-40 40V100z" fill="url(#handle512)"/>
    <path d="M96 100h40v64c0 22-18 40-40 40V100z" fill="none" stroke="#d97706" stroke-width="4"/>
    
    <!-- Right Handle -->
    <path d="M376 100h40v104c0 22-18 40-40 40V100z" fill="url(#handle512)"/>
    <path d="M376 100h40v104c0 22-18 40-40 40V100z" fill="none" stroke="#d97706" stroke-width="4"/>
    
    <!-- Stem -->
    <rect x="224" y="332" width="64" height="52" fill="url(#trophy512)"/>
    
    <!-- Base -->
    <rect x="160" y="380" width="192" height="32" rx="8" fill="url(#trophy512)"/>
  </g>
  
  <!-- Star decoration -->
  <path d="M256 152l16 32 35 5-25 24 6 35-32-17-32 17 6-35-25-24 35-5z" fill="white" opacity="0.95"/>
  
  <!-- Secondary stars -->
  <path d="M192 180l8 16 18 3-13 12 3 18-16-9-16 9 3-18-13-12 18-3z" fill="white" opacity="0.6"/>
  <path d="M320 180l8 16 18 3-13 12 3 18-16-9-16 9 3-18-13-12 18-3z" fill="white" opacity="0.6"/>
  
  <!-- Shine effects -->
  <ellipse cx="180" cy="165" rx="20" ry="35" fill="white" opacity="0.25"/>
  <ellipse cx="160" cy="145" rx="8" ry="15" fill="white" opacity="0.4"/>
</svg>
