<svg xmlns="http://www.w3.org/2000/svg" viewBox="0 0 32 32">
  <defs>
    <linearGradient id="bg32" x1="0%" y1="0%" x2="100%" y2="100%">
      <stop offset="0%" style="stop-color:#0f172a"/>
      <stop offset="100%" style="stop-color:#1e3a5f"/>
    </linearGradient>
    <linearGradient id="trophy32" x1="0%" y1="0%" x2="0%" y2="100%">
      <stop offset="0%" style="stop-color:#fcd34d"/>
      <stop offset="100%" style="stop-color:#f59e0b"/>
    </linearGradient>
  </defs>
  <rect width="32" height="32" rx="6" fill="url(#bg32)"/>
  <path d="M8 7h16v7c0 4.4-3.6 8-8 8s-8-3.6-8-8V7z" fill="url(#trophy32)"/>
  <path d="M6 7h3v4c-1.7 0-3-1.3-3-3V7zm17 0h3v1c0 1.7-1.3 3-3 3V7z" fill="#f59e0b"/>
  <rect x="14" y="21" width="4" height="3" fill="url(#trophy32)"/>
  <rect x="10" y="24" width="12" height="2" rx="1" fill="url(#trophy32)"/>
  <path d="M13 11l1.5 1.5L16 11l1.5 1.5L19 11" stroke="white" stroke-width="1" fill="none" stroke-linecap="round" opacity="0.6"/>
</svg>
